<?xml version="1.0" encoding="UTF-8" standalone="no"?>
<svg
   xmlns:dc="http://purl.org/dc/elements/1.1/"
   xmlns:cc="http://creativecommons.org/ns#"
   xmlns:rdf="http://www.w3.org/1999/02/22-rdf-syntax-ns#"
   xmlns:svg="http://www.w3.org/2000/svg"
   xmlns="http://www.w3.org/2000/svg"
   xmlns:sodipodi="http://sodipodi.sourceforge.net/DTD/sodipodi-0.dtd"
   xmlns:inkscape="http://www.inkscape.org/namespaces/inkscape"
   height="32"
   width="32"
   version="1"
   viewBox="0 0 32 32"
   id="svg4"
   sodipodi:docname="app.svg"
   inkscape:version="0.92.3 (2405546, 2018-03-11)">
  <metadata
     id="metadata10">
    <rdf:RDF>
      <cc:Work
         rdf:about="">
        <dc:format>image/svg+xml</dc:format>
        <dc:type
           rdf:resource="http://purl.org/dc/dcmitype/StillImage" />
      </cc:Work>
    </rdf:RDF>
  </metadata>
  <defs
     id="defs8" />
  <sodipodi:namedview
     pagecolor="#ffffff"
     bordercolor="#666666"
     borderopacity="1"
     objecttolerance="10"
     gridtolerance="10"
     guidetolerance="10"
     inkscape:pageopacity="0"
     inkscape:pageshadow="2"
     inkscape:window-width="1644"
     inkscape:window-height="1007"
     id="namedview6"
     showgrid="false"
     inkscape:zoom="14.75"
     inkscape:cx="6.8799741"
     inkscape:cy="14.393932"
     inkscape:window-x="304"
     inkscape:window-y="143"
     inkscape:window-maximized="0"
     inkscape:current-layer="svg4"
     inkscape:snap-page="true"
     inkscape:snap-bbox="true"
     inkscape:bbox-nodes="true" />
  <path
     id="path5230"
     style="fill:#fffffe;fill-opacity:1;fill-rule:evenodd;stroke:#ffffff;stroke-width:0.727449px;stroke-linecap:butt;stroke-linejoin:miter;stroke-opacity:0.97989953"
     d="M 6.1869579,26.566585 C 5.3652219,26.477493 4.7840965,25.938316 4.8044967,24.949052 L 6.1869579,13.314733 c 0.2124718,-0.777159 0.716607,-1.398436 1.5124069,-1.396186 H 23.648388 c 0.79024,-0.02377 1.580481,0.52402 1.787391,1.175735 l 1.757421,11.73588 c 0.0415,1.068698 -0.398223,1.687309 -1.138707,1.662939 z M 5.7472552,9.8128053 C 4.8885803,9.7801144 4.030631,10.52423 3.9513654,11.426834 3.3054213,16.728178 2.3478574,22.041061 1.8599497,27.339781 v 2.227811 c 0.024558,1.149001 0.7790463,1.92195 1.6140274,2.068684 H 28.661899 c 0.712189,-0.01782 1.502188,-0.511906 1.477632,-1.454899 V 27.317048 L 27.866252,11.881489 c -0.184641,-0.94701 -0.994217,-1.9530439 -2.11415,-2.0686837 z" />
  <path
     style="fill:#ffffff;fill-opacity:1;fill-rule:evenodd;stroke:#fffffc;stroke-width:0.727449px;stroke-linecap:butt;stroke-linejoin:miter;stroke-opacity:0.97989953"
     d="M 14.201172 0.36328125 C 13.810545 0.36328125 13.503551 0.65226688 13.443359 1.0253906 L 8.3320312 1.0253906 C 6.3105837 1.0253906 4.6835938 1.6685975 4.6835938 2.46875 L 4.6835938 3.9902344 C 4.6835937 4.7903868 6.3105838 5.4335938 8.3320312 5.4335938 L 13.417969 5.4335938 L 13.417969 12.609375 L 13.416016 12.609375 L 11.914062 21.361328 L 9.7558594 21.361328 L 15.597656 25.111328 L 22.121094 21.361328 L 19.962891 21.361328 L 18.597656 12.609375 L 18.582031 12.609375 L 18.582031 5.4335938 L 23.667969 5.4335938 C 25.689417 5.4335938 27.316406 4.7903868 27.316406 3.9902344 L 27.316406 2.46875 C 27.316406 1.6685975 25.689417 1.0253906 23.667969 1.0253906 L 18.556641 1.0253906 C 18.49645 0.65226688 18.189454 0.36328125 17.798828 0.36328125 L 14.201172 0.36328125 z "
     id="path5197" />
</svg>
